<svg width="839" height="90" viewBox="0 0 839 90" fill="none" xmlns="http://www.w3.org/2000/svg">
<path fill-rule="evenodd" clip-rule="evenodd" d="M839 0L803.832 8.36283C768.665 16.7257 699.334 33.4513 628.999 36.6372C559.668 40.2212 489.333 29.8673 418.998 36.6372C349.667 43.4071 279.332 66.5044 210.001 73.2743C139.666 80.0442 70.3353 70.0885 35.1677 64.9115L-5.126e-06 60.1327V90H35.1677C70.3353 90 139.666 90 210.001 90C279.332 90 349.667 90 418.998 90C489.333 90 559.668 90 628.999 90C699.334 90 768.665 90 803.832 90H839V0Z" fill="#168AAD"/>
<path fill-rule="evenodd" clip-rule="evenodd" d="M839 64.6053H815.89C792.78 64.6053 745.554 64.6054 699.334 68.6685C652.109 73.0702 605.889 81.5351 559.668 84.2439C512.443 87.2912 466.223 84.2439 418.998 71.7159C372.777 58.8492 326.557 36.1633 279.332 23.2967C233.111 10.7687 186.891 7.72133 139.666 13.4775C93.4455 19.2336 46.2204 33.4546 23.1102 40.5651L-5.126e-06 49.1551V90H23.1102C46.2204 90 93.4455 90 139.666 90C186.891 90 233.111 90 279.332 90C326.557 90 372.777 90 418.998 90C466.223 90 512.443 90 559.668 90C605.889 90 652.109 90 699.334 90C745.554 90 792.78 90 815.89 90H839V64.6053Z" fill="#52B69A"/>
</svg>
