<svg width="835" height="177" viewBox="0 0 835 177" fill="none" xmlns="http://www.w3.org/2000/svg">
<path fill-rule="evenodd" clip-rule="evenodd" d="M835 0L800 16.4469C765 32.8938 696 65.7876 626 72.0531C557 79.1018 487 58.7389 417 72.0531C348 85.3673 278 130.792 209 144.106C139 157.42 70 137.841 35 127.659L0 118.261V177H35C70 177 139 177 209 177C278 177 348 177 417 177C487 177 557 177 626 177C696 177 765 177 800 177H835V0Z" fill="#168AAD"/>
<path fill-rule="evenodd" clip-rule="evenodd" d="M835 127.057H812C789 127.057 742 127.057 696 135.048C649 143.705 603 160.352 557 165.68C510 171.673 464 165.68 417 141.041C371 115.737 325 71.1212 278 45.8169C232 21.1784 186 15.1853 139 26.5057C93 37.826 46 65.794 23 79.778L0 96.6716V177H23C46 177 93 177 139 177C186 177 232 177 278 177C325 177 371 177 417 177C464 177 510 177 557 177C603 177 649 177 696 177C742 177 789 177 812 177H835V127.057Z" fill="#52B69A"/>
</svg>
